<svg width="365" height="300" viewBox="0 0 365 300" fill="none" xmlns="http://www.w3.org/2000/svg">
<path d="M247.494 191.324L234.494 183.744M247.494 191.324V204.324M247.494 191.324L234.494 198.91M143.496 191.324L156.495 183.744M143.496 191.324L156.495 198.91M143.496 191.324V204.324M195.495 221.657L208.495 214.077M195.495 221.657L182.495 214.077M195.495 221.657V234.657M195.495 273.656L208.495 266.076M195.495 273.656V260.656M195.495 273.656L182.495 266.076M182.495 168.577L195.495 160.991L208.495 168.577M247.494 230.324V243.323L234.494 250.909M156.495 250.909L143.496 243.323V230.324" stroke="#EAB308" stroke-width="8.66654" stroke-linecap="round" stroke-linejoin="round"/>
<path d="M143.5 191.324L130.5 183.744M143.5 191.324V204.324M143.5 191.324L130.5 198.91M39.5015 191.324L52.5013 183.744M39.5015 191.324L52.5013 198.91M39.5015 191.324V204.324M91.5007 221.657L104.501 214.077M91.5007 221.657L78.5009 214.077M91.5007 221.657V234.657M91.5007 273.656L104.501 266.076M91.5007 273.656V260.656M91.5007 273.656L78.5009 266.076M78.5009 168.577L91.5007 160.991L104.501 168.577M143.5 230.324V243.323L130.5 250.909M52.5013 250.909L39.5015 243.323V230.324" stroke="#EAB308" stroke-width="8.66654" stroke-linecap="round" stroke-linejoin="round"/>
<path d="M195.502 110.437L182.502 102.856M195.502 110.437V123.436M195.502 110.437L182.502 118.023M91.5034 110.437L104.503 102.856M91.5034 110.437L104.503 118.023M91.5034 110.437V123.436M143.503 140.77L156.502 133.189M143.503 140.77L130.503 133.189M143.503 140.77V153.769M143.503 192.769L156.502 185.188M143.503 192.769V179.769M143.503 192.769L130.503 185.188M130.503 87.6899L143.503 80.1038L156.502 87.6899M195.502 149.436V162.436L182.502 170.022M104.503 170.022L91.5034 162.436V149.436" stroke="#EAB308" stroke-width="8.66654" stroke-linecap="round" stroke-linejoin="round"/>
<path d="M247.333 60V94.6662M247.333 146.665V163.998M238.666 94.6662H255.999C260.786 94.6662 264.666 98.5463 264.666 103.333V137.999C264.666 142.785 260.786 146.665 255.999 146.665H238.666C233.88 146.665 230 142.785 230 137.999V103.333C230 98.5463 233.88 94.6662 238.666 94.6662Z" stroke="#EF4444" stroke-width="8.7" stroke-linecap="round" stroke-linejoin="round"/>
<path d="M306.835 33.8818V51.2149M306.835 120.547V146.547M298.168 51.2149H315.501C320.287 51.2149 324.168 55.0951 324.168 59.8815V111.881C324.168 116.667 320.287 120.547 315.501 120.547H298.168C293.382 120.547 289.501 116.667 289.501 111.881V59.8815C289.501 55.0951 293.382 51.2149 298.168 51.2149Z" stroke="#22C55E" stroke-width="8.7" stroke-linecap="round" stroke-linejoin="round"/>
</svg>
