<svg width="1080" height="300" viewBox="0 0 1080 300" fill="none" xmlns="http://www.w3.org/2000/svg">
<path d="M247.494 191.324L234.494 183.744M247.494 191.324V204.324M247.494 191.324L234.494 198.91M143.496 191.324L156.495 183.744M143.496 191.324L156.495 198.91M143.496 191.324V204.324M195.495 221.657L208.495 214.077M195.495 221.657L182.495 214.077M195.495 221.657V234.657M195.495 273.656L208.495 266.076M195.495 273.656V260.656M195.495 273.656L182.495 266.076M182.495 168.577L195.495 160.991L208.495 168.577M247.494 230.324V243.323L234.494 250.909M156.495 250.909L143.496 243.323V230.324" stroke="#0F172A" stroke-width="8.66654" stroke-linecap="round" stroke-linejoin="round"/>
<path d="M143.5 191.324L130.5 183.744M143.5 191.324V204.324M143.5 191.324L130.5 198.91M39.5015 191.324L52.5013 183.744M39.5015 191.324L52.5013 198.91M39.5015 191.324V204.324M91.5007 221.657L104.501 214.077M91.5007 221.657L78.5009 214.077M91.5007 221.657V234.657M91.5007 273.656L104.501 266.076M91.5007 273.656V260.656M91.5007 273.656L78.5009 266.076M78.5009 168.577L91.5007 160.991L104.501 168.577M143.5 230.324V243.323L130.5 250.909M52.5013 250.909L39.5015 243.323V230.324" stroke="#0F172A" stroke-width="8.66654" stroke-linecap="round" stroke-linejoin="round"/>
<path d="M195.502 110.437L182.502 102.856M195.502 110.437V123.436M195.502 110.437L182.502 118.023M91.5034 110.437L104.503 102.856M91.5034 110.437L104.503 118.023M91.5034 110.437V123.436M143.503 140.77L156.502 133.189M143.503 140.77L130.503 133.189M143.503 140.77V153.769M143.503 192.769L156.502 185.188M143.503 192.769V179.769M143.503 192.769L130.503 185.188M130.503 87.6899L143.503 80.1038L156.502 87.6899M195.502 149.436V162.436L182.502 170.022M104.503 170.022L91.5034 162.436V149.436" stroke="#0F172A" stroke-width="8.66654" stroke-linecap="round" stroke-linejoin="round"/>
<path d="M247.333 60V94.6662M247.333 146.665V163.998M238.666 94.6662H255.999C260.786 94.6662 264.666 98.5463 264.666 103.333V137.999C264.666 142.785 260.786 146.665 255.999 146.665H238.666C233.88 146.665 230 142.785 230 137.999V103.333C230 98.5463 233.88 94.6662 238.666 94.6662Z" stroke="#0F172A" stroke-width="8.7" stroke-linecap="round" stroke-linejoin="round"/>
<path d="M306.835 33.8818V51.2149M306.835 120.547V146.547M298.168 51.2149H315.501C320.287 51.2149 324.168 55.0951 324.168 59.8815V111.881C324.168 116.667 320.287 120.547 315.501 120.547H298.168C293.382 120.547 289.501 116.667 289.501 111.881V59.8815C289.501 55.0951 293.382 51.2149 298.168 51.2149Z" stroke="#0F172A" stroke-width="8.7" stroke-linecap="round" stroke-linejoin="round"/>
<path d="M490.147 104.604C492.851 105.956 494.411 108.088 494.827 111C495.347 113.912 494.619 116.564 492.643 118.956C491.291 120.828 489.523 121.868 487.339 122.076C485.259 122.284 483.127 121.868 480.943 120.828C478.447 119.684 475.795 118.8 472.987 118.176C470.283 117.552 467.423 117.24 464.407 117.24C458.791 117.24 453.747 118.124 449.275 119.892C444.907 121.66 441.163 124.208 438.043 127.536C434.923 130.76 432.531 134.608 430.867 139.08C429.307 143.552 428.527 148.492 428.527 153.9C428.527 160.244 429.411 165.756 431.179 170.436C433.051 175.116 435.599 179.016 438.823 182.136C442.047 185.256 445.843 187.596 450.211 189.156C454.579 190.612 459.311 191.34 464.407 191.34C467.215 191.34 470.023 191.08 472.831 190.56C475.639 190.04 478.343 189.104 480.943 187.752C483.127 186.712 485.259 186.348 487.339 186.66C489.523 186.972 491.343 188.064 492.799 189.936C494.879 192.536 495.607 195.24 494.983 198.048C494.463 200.752 492.903 202.728 490.303 203.976C487.599 205.328 484.791 206.472 481.879 207.408C479.071 208.24 476.211 208.864 473.299 209.28C470.387 209.8 467.423 210.06 464.407 210.06C456.919 210.06 449.795 208.864 443.035 206.472C436.379 204.08 430.399 200.544 425.095 195.864C419.895 191.184 415.787 185.36 412.771 178.392C409.755 171.32 408.247 163.156 408.247 153.9C408.247 145.892 409.599 138.508 412.303 131.748C415.111 124.988 419.011 119.164 424.003 114.276C429.099 109.284 435.079 105.436 441.943 102.732C448.807 99.924 456.295 98.52 464.407 98.52C468.983 98.52 473.455 99.04 477.823 100.08C482.191 101.12 486.299 102.628 490.147 104.604ZM519.312 208.5C516.608 208.5 514.372 207.616 512.604 205.848C510.836 203.976 509.952 201.688 509.952 198.984V134.556C509.952 131.852 510.836 129.616 512.604 127.848C514.372 125.976 516.608 125.04 519.312 125.04C522.016 125.04 524.252 125.976 526.02 127.848C527.788 129.616 528.672 131.852 528.672 134.556V149.22L527.58 138.768C528.724 136.272 530.18 134.088 531.948 132.216C533.82 130.24 535.9 128.628 538.188 127.38C540.476 126.028 542.92 125.04 545.52 124.416C548.12 123.792 550.72 123.48 553.32 123.48C556.44 123.48 559.04 124.364 561.12 126.132C563.304 127.9 564.396 129.98 564.396 132.372C564.396 135.804 563.512 138.3 561.744 139.86C559.976 141.316 558.052 142.044 555.972 142.044C553.996 142.044 552.176 141.68 550.512 140.952C548.952 140.224 547.132 139.86 545.052 139.86C543.18 139.86 541.256 140.328 539.28 141.264C537.408 142.096 535.64 143.448 533.976 145.32C532.416 147.192 531.116 149.532 530.076 152.34C529.14 155.044 528.672 158.268 528.672 162.012V198.984C528.672 201.688 527.788 203.976 526.02 205.848C524.252 207.616 522.016 208.5 519.312 208.5ZM639.525 125.04C642.229 125.04 644.465 125.976 646.233 127.848C648.001 129.616 648.885 131.852 648.885 134.556V200.856C648.885 210.424 647.065 218.016 643.425 223.632C639.889 229.352 635.105 233.46 629.073 235.956C623.041 238.452 616.281 239.7 608.793 239.7C605.465 239.7 601.929 239.44 598.185 238.92C594.441 238.4 591.373 237.62 588.981 236.58C585.861 235.228 583.677 233.512 582.429 231.432C581.285 229.456 581.077 227.324 581.805 225.036C582.741 222.02 584.249 219.94 586.329 218.796C588.409 217.756 590.593 217.652 592.881 218.484C594.545 219.004 596.729 219.784 599.433 220.824C602.137 221.968 605.257 222.54 608.793 222.54C613.577 222.54 617.529 221.864 620.649 220.512C623.873 219.264 626.265 217.08 627.825 213.96C629.489 210.944 630.321 206.784 630.321 201.48V191.028L633.597 194.772C631.829 198.204 629.593 201.064 626.889 203.352C624.289 205.536 621.169 207.2 617.529 208.344C613.889 209.488 609.729 210.06 605.049 210.06C599.537 210.06 594.701 208.812 590.541 206.316C586.485 203.716 583.313 200.18 581.025 195.708C578.737 191.132 577.593 185.932 577.593 180.108V134.556C577.593 131.852 578.477 129.616 580.245 127.848C582.013 125.976 584.249 125.04 586.953 125.04C589.657 125.04 591.893 125.976 593.661 127.848C595.429 129.616 596.313 131.852 596.313 134.556V174.492C596.313 181.252 597.769 186.036 600.681 188.844C603.697 191.548 607.857 192.9 613.161 192.9C616.801 192.9 619.869 192.224 622.365 190.872C624.861 189.416 626.785 187.336 628.137 184.632C629.489 181.824 630.165 178.444 630.165 174.492V134.556C630.165 131.852 631.049 129.616 632.817 127.848C634.585 125.976 636.821 125.04 639.525 125.04ZM712.363 123.48C719.643 123.48 726.143 125.352 731.863 129.096C737.687 132.736 742.263 137.78 745.591 144.228C749.023 150.676 750.739 158.164 750.739 166.692C750.739 175.22 749.023 182.76 745.591 189.312C742.263 195.76 737.739 200.856 732.019 204.6C726.403 208.24 720.059 210.06 712.987 210.06C708.827 210.06 704.927 209.384 701.287 208.032C697.647 206.68 694.423 204.964 691.615 202.884C688.911 200.804 686.779 198.724 685.219 196.644C683.763 194.46 683.035 192.64 683.035 191.184L687.871 189.156V230.184C687.871 232.888 686.987 235.124 685.219 236.892C683.451 238.764 681.215 239.7 678.511 239.7C675.807 239.7 673.571 238.816 671.803 237.048C670.035 235.28 669.151 232.992 669.151 230.184V134.556C669.151 131.852 670.035 129.616 671.803 127.848C673.571 125.976 675.807 125.04 678.511 125.04C681.215 125.04 683.451 125.976 685.219 127.848C686.987 129.616 687.871 131.852 687.871 134.556V142.2L685.219 140.796C685.219 139.444 685.947 137.832 687.403 135.96C688.859 133.984 690.835 132.06 693.331 130.188C695.827 128.212 698.687 126.6 701.911 125.352C705.239 124.104 708.723 123.48 712.363 123.48ZM710.023 140.64C705.447 140.64 701.443 141.784 698.011 144.072C694.579 146.36 691.875 149.48 689.899 153.432C688.027 157.28 687.091 161.7 687.091 166.692C687.091 171.58 688.027 176.052 689.899 180.108C691.875 184.06 694.579 187.18 698.011 189.468C701.443 191.756 705.447 192.9 710.023 192.9C714.599 192.9 718.551 191.756 721.879 189.468C725.311 187.18 727.963 184.06 729.835 180.108C731.811 176.052 732.799 171.58 732.799 166.692C732.799 161.7 731.811 157.28 729.835 153.432C727.963 149.48 725.311 146.36 721.879 144.072C718.551 141.784 714.599 140.64 710.023 140.64ZM798.175 208.5C795.263 208.5 792.871 207.616 790.999 205.848C789.127 203.976 788.191 201.688 788.191 198.984V108.504H808.471V198.984C808.471 201.688 807.483 203.976 805.507 205.848C803.635 207.616 801.191 208.5 798.175 208.5ZM763.699 117.24C760.995 117.24 758.707 116.408 756.835 114.744C755.067 113.08 754.183 110.896 754.183 108.192C754.183 105.488 755.067 103.356 756.835 101.796C758.707 100.132 760.995 99.3 763.699 99.3H832.963C835.667 99.3 837.903 100.132 839.671 101.796C841.543 103.46 842.479 105.644 842.479 108.348C842.479 111.052 841.543 113.236 839.671 114.9C837.903 116.46 835.667 117.24 832.963 117.24H763.699ZM919.521 166.848C919.521 175.376 917.597 182.916 913.749 189.468C910.005 195.916 904.909 200.96 898.461 204.6C892.117 208.24 884.993 210.06 877.089 210.06C869.185 210.06 862.009 208.24 855.561 204.6C849.217 200.96 844.121 195.916 840.273 189.468C836.529 182.916 834.657 175.376 834.657 166.848C834.657 158.32 836.529 150.832 840.273 144.384C844.121 137.832 849.217 132.736 855.561 129.096C862.009 125.352 869.185 123.48 877.089 123.48C884.993 123.48 892.117 125.352 898.461 129.096C904.909 132.736 910.005 137.832 913.749 144.384C917.597 150.832 919.521 158.32 919.521 166.848ZM900.801 166.848C900.801 161.544 899.709 156.968 897.525 153.12C895.445 149.168 892.585 146.1 888.945 143.916C885.409 141.732 881.457 140.64 877.089 140.64C872.721 140.64 868.717 141.732 865.077 143.916C861.541 146.1 858.681 149.168 856.497 153.12C854.417 156.968 853.377 161.544 853.377 166.848C853.377 172.048 854.417 176.624 856.497 180.576C858.681 184.424 861.541 187.44 865.077 189.624C868.717 191.808 872.721 192.9 877.089 192.9C881.457 192.9 885.409 191.808 888.945 189.624C892.585 187.44 895.445 184.424 897.525 180.576C899.709 176.624 900.801 172.048 900.801 166.848ZM937.621 125.04C940.637 125.04 943.185 126.34 945.265 128.94L997.369 193.68C998.721 195.344 999.397 197.216 999.397 199.296C999.397 201.896 998.409 204.132 996.433 206.004C994.457 207.876 992.273 208.812 989.881 208.812C986.865 208.812 984.317 207.46 982.237 204.756L930.133 140.016C928.781 138.352 928.105 136.48 928.105 134.4C928.105 131.696 929.041 129.46 930.913 127.692C932.889 125.924 935.125 125.04 937.621 125.04ZM937.777 208.656C935.697 208.656 933.617 207.876 931.537 206.316C929.561 204.652 928.573 202.676 928.573 200.388C928.573 198.308 929.353 196.332 930.913 194.46L954.781 165.288L964.141 180.888L945.265 204.756C943.289 207.356 940.793 208.656 937.777 208.656ZM989.725 125.04C992.221 125.04 994.301 125.924 995.965 127.692C997.733 129.356 998.617 131.28 998.617 133.464C998.617 134.504 998.461 135.544 998.149 136.584C997.837 137.624 997.265 138.612 996.433 139.548L972.877 168.252L963.049 154.68L982.237 129.252C984.317 126.444 986.813 125.04 989.725 125.04Z" fill="#0F172A"/>
</svg>
