<svg width="1724" height="182" viewBox="0 0 1724 182" fill="none" xmlns="http://www.w3.org/2000/svg">
<path d="M25.6818 120.5H5.05682V62.3182H25.8523C31.7045 62.3182 36.7424 63.483 40.9659 65.8125C45.1894 68.1231 48.4375 71.447 50.7102 75.7841C53.0019 80.1212 54.1477 85.3106 54.1477 91.3523C54.1477 97.4129 53.0019 102.621 50.7102 106.977C48.4375 111.333 45.1705 114.676 40.9091 117.006C36.6667 119.335 31.5909 120.5 25.6818 120.5ZM17.358 109.96H25.1705C28.8068 109.96 31.8655 109.316 34.3466 108.028C36.8466 106.722 38.7216 104.705 39.9716 101.977C41.2405 99.2311 41.875 95.6894 41.875 91.3523C41.875 87.053 41.2405 83.5398 39.9716 80.8125C38.7216 78.0852 36.8561 76.0777 34.375 74.7898C31.8939 73.5019 28.8352 72.858 25.1989 72.858H17.358V109.96ZM75.4759 121.324C72.6918 121.324 70.2107 120.841 68.0327 119.875C65.8546 118.89 64.1312 117.441 62.8622 115.528C61.6122 113.597 60.9872 111.191 60.9872 108.312C60.9872 105.888 61.4323 103.852 62.3224 102.205C63.2126 100.557 64.4247 99.2311 65.9588 98.2273C67.4929 97.2235 69.2353 96.4659 71.1861 95.9545C73.1558 95.4432 75.2202 95.0833 77.3793 94.875C79.9171 94.6098 81.9626 94.3636 83.5156 94.1364C85.0687 93.8902 86.1956 93.5303 86.8963 93.0568C87.5971 92.5833 87.9474 91.8826 87.9474 90.9545V90.7841C87.9474 88.9848 87.3793 87.5928 86.2429 86.608C85.1255 85.6231 83.5346 85.1307 81.4702 85.1307C79.2921 85.1307 77.5592 85.6136 76.2713 86.5795C74.9834 87.5265 74.1312 88.7197 73.7145 90.1591L62.5213 89.25C63.0895 86.5985 64.2069 84.3068 65.8736 82.375C67.5402 80.4242 69.6899 78.928 72.3224 77.8864C74.974 76.8258 78.0421 76.2955 81.527 76.2955C83.9512 76.2955 86.2713 76.5795 88.4872 77.1477C90.7221 77.7159 92.7012 78.5966 94.4247 79.7898C96.1671 80.983 97.5402 82.517 98.544 84.392C99.5478 86.2481 100.05 88.4735 100.05 91.0682V120.5H88.5724V114.449H88.2315C87.5308 115.812 86.5933 117.015 85.419 118.057C84.2448 119.08 82.8338 119.884 81.1861 120.472C79.5384 121.04 77.6349 121.324 75.4759 121.324ZM78.9418 112.972C80.7221 112.972 82.294 112.621 83.6577 111.92C85.0213 111.201 86.0914 110.235 86.8679 109.023C87.6444 107.811 88.0327 106.437 88.0327 104.903V100.273C87.6539 100.519 87.1331 100.746 86.4702 100.955C85.8262 101.144 85.0971 101.324 84.2827 101.494C83.4683 101.646 82.6539 101.788 81.8395 101.92C81.0251 102.034 80.2865 102.138 79.6236 102.233C78.2031 102.441 76.9626 102.773 75.902 103.227C74.8414 103.682 74.0175 104.297 73.4304 105.074C72.8433 105.831 72.5497 106.778 72.5497 107.915C72.5497 109.562 73.1463 110.822 74.3395 111.693C75.5516 112.545 77.0857 112.972 78.9418 112.972ZM132.649 76.8636V85.9545H106.371V76.8636H132.649ZM112.337 66.4091H124.439V107.091C124.439 108.208 124.609 109.08 124.95 109.705C125.291 110.311 125.765 110.737 126.371 110.983C126.996 111.229 127.715 111.352 128.53 111.352C129.098 111.352 129.666 111.305 130.234 111.21C130.803 111.097 131.238 111.011 131.541 110.955L133.445 119.96C132.839 120.15 131.986 120.367 130.888 120.614C129.789 120.879 128.454 121.04 126.882 121.097C123.965 121.21 121.409 120.822 119.212 119.932C117.034 119.042 115.339 117.659 114.126 115.784C112.914 113.909 112.318 111.542 112.337 108.682V66.4091ZM152.976 121.324C150.192 121.324 147.711 120.841 145.533 119.875C143.355 118.89 141.631 117.441 140.362 115.528C139.112 113.597 138.487 111.191 138.487 108.312C138.487 105.888 138.932 103.852 139.822 102.205C140.713 100.557 141.925 99.2311 143.459 98.2273C144.993 97.2235 146.735 96.4659 148.686 95.9545C150.656 95.4432 152.72 95.0833 154.879 94.875C157.417 94.6098 159.463 94.3636 161.016 94.1364C162.569 93.8902 163.696 93.5303 164.396 93.0568C165.097 92.5833 165.447 91.8826 165.447 90.9545V90.7841C165.447 88.9848 164.879 87.5928 163.743 86.608C162.625 85.6231 161.035 85.1307 158.97 85.1307C156.792 85.1307 155.059 85.6136 153.771 86.5795C152.483 87.5265 151.631 88.7197 151.214 90.1591L140.021 89.25C140.589 86.5985 141.707 84.3068 143.374 82.375C145.04 80.4242 147.19 78.928 149.822 77.8864C152.474 76.8258 155.542 76.2955 159.027 76.2955C161.451 76.2955 163.771 76.5795 165.987 77.1477C168.222 77.7159 170.201 78.5966 171.925 79.7898C173.667 80.983 175.04 82.517 176.044 84.392C177.048 86.2481 177.55 88.4735 177.55 91.0682V120.5H166.072V114.449H165.732C165.031 115.812 164.093 117.015 162.919 118.057C161.745 119.08 160.334 119.884 158.686 120.472C157.038 121.04 155.135 121.324 152.976 121.324ZM156.442 112.972C158.222 112.972 159.794 112.621 161.158 111.92C162.521 111.201 163.591 110.235 164.368 109.023C165.144 107.811 165.533 106.437 165.533 104.903V100.273C165.154 100.519 164.633 100.746 163.97 100.955C163.326 101.144 162.597 101.324 161.783 101.494C160.968 101.646 160.154 101.788 159.339 101.92C158.525 102.034 157.786 102.138 157.124 102.233C155.703 102.441 154.463 102.773 153.402 103.227C152.341 103.682 151.518 104.297 150.93 105.074C150.343 105.831 150.05 106.778 150.05 107.915C150.05 109.562 150.646 110.822 151.839 111.693C153.052 112.545 154.586 112.972 156.442 112.972ZM205.455 136.864V76.8636H217.386V84.1932H217.926C218.456 83.0189 219.223 81.8258 220.227 80.6136C221.25 79.3826 222.576 78.3598 224.205 77.5455C225.852 76.7121 227.898 76.2955 230.341 76.2955C233.523 76.2955 236.458 77.1288 239.148 78.7955C241.837 80.4432 243.987 82.9337 245.597 86.267C247.206 89.5814 248.011 93.7386 248.011 98.7386C248.011 103.606 247.225 107.716 245.653 111.068C244.1 114.402 241.979 116.93 239.29 118.653C236.619 120.358 233.627 121.21 230.312 121.21C227.964 121.21 225.966 120.822 224.318 120.045C222.689 119.269 221.354 118.294 220.312 117.119C219.271 115.926 218.475 114.723 217.926 113.511H217.557V136.864H205.455ZM217.301 98.6818C217.301 101.277 217.661 103.54 218.381 105.472C219.1 107.403 220.142 108.909 221.506 109.989C222.869 111.049 224.527 111.58 226.477 111.58C228.447 111.58 230.114 111.04 231.477 109.96C232.841 108.862 233.873 107.347 234.574 105.415C235.294 103.464 235.653 101.22 235.653 98.6818C235.653 96.1629 235.303 93.947 234.602 92.0341C233.902 90.1212 232.869 88.625 231.506 87.5455C230.142 86.4659 228.466 85.9261 226.477 85.9261C224.508 85.9261 222.841 86.447 221.477 87.4886C220.133 88.5303 219.1 90.0076 218.381 91.9205C217.661 93.8333 217.301 96.0871 217.301 98.6818ZM275.795 121.352C271.383 121.352 267.566 120.415 264.347 118.54C261.146 116.646 258.674 114.013 256.932 110.642C255.189 107.252 254.318 103.322 254.318 98.8523C254.318 94.3447 255.189 90.4053 256.932 87.0341C258.674 83.6439 261.146 81.0114 264.347 79.1364C267.566 77.2424 271.383 76.2955 275.795 76.2955C280.208 76.2955 284.015 77.2424 287.216 79.1364C290.436 81.0114 292.917 83.6439 294.659 87.0341C296.402 90.4053 297.273 94.3447 297.273 98.8523C297.273 103.322 296.402 107.252 294.659 110.642C292.917 114.013 290.436 116.646 287.216 118.54C284.015 120.415 280.208 121.352 275.795 121.352ZM275.852 111.977C277.86 111.977 279.536 111.409 280.881 110.273C282.225 109.117 283.239 107.545 283.92 105.557C284.621 103.568 284.972 101.305 284.972 98.767C284.972 96.2292 284.621 93.9659 283.92 91.9773C283.239 89.9886 282.225 88.4167 280.881 87.2614C279.536 86.1061 277.86 85.5284 275.852 85.5284C273.826 85.5284 272.121 86.1061 270.739 87.2614C269.375 88.4167 268.343 89.9886 267.642 91.9773C266.96 93.9659 266.619 96.2292 266.619 98.767C266.619 101.305 266.96 103.568 267.642 105.557C268.343 107.545 269.375 109.117 270.739 110.273C272.121 111.409 273.826 111.977 275.852 111.977ZM312.656 120.5L300.781 76.8636H313.026L319.787 106.182H320.185L327.23 76.8636H339.247L346.406 106.011H346.776L353.423 76.8636H365.639L353.793 120.5H340.98L333.48 93.0568H332.94L325.44 120.5H312.656ZM390.888 121.352C386.399 121.352 382.536 120.443 379.297 118.625C376.077 116.788 373.596 114.193 371.854 110.841C370.111 107.47 369.24 103.483 369.24 98.8807C369.24 94.392 370.111 90.4527 371.854 87.0625C373.596 83.6723 376.049 81.0303 379.212 79.1364C382.393 77.2424 386.125 76.2955 390.405 76.2955C393.284 76.2955 395.964 76.7595 398.445 77.6875C400.945 78.5966 403.123 79.9697 404.979 81.8068C406.854 83.6439 408.312 85.9545 409.354 88.7386C410.395 91.5038 410.916 94.7424 410.916 98.4545V101.778H374.07V94.2784H399.524C399.524 92.536 399.145 90.9924 398.388 89.6477C397.63 88.303 396.579 87.2519 395.234 86.4943C393.909 85.7178 392.365 85.3295 390.604 85.3295C388.767 85.3295 387.138 85.7557 385.717 86.608C384.316 87.4413 383.217 88.5682 382.422 89.9886C381.626 91.3902 381.219 92.9527 381.2 94.6761V101.807C381.2 103.966 381.598 105.831 382.393 107.403C383.208 108.975 384.354 110.188 385.831 111.04C387.308 111.892 389.06 112.318 391.087 112.318C392.431 112.318 393.662 112.129 394.78 111.75C395.897 111.371 396.854 110.803 397.649 110.045C398.445 109.288 399.051 108.36 399.467 107.261L410.661 108C410.092 110.689 408.928 113.038 407.166 115.045C405.424 117.034 403.17 118.587 400.405 119.705C397.659 120.803 394.486 121.352 390.888 121.352ZM418.814 120.5V76.8636H430.547V84.4773H431.001C431.797 81.7689 433.132 79.7235 435.007 78.3409C436.882 76.9394 439.041 76.2386 441.484 76.2386C442.09 76.2386 442.744 76.2765 443.445 76.3523C444.145 76.428 444.761 76.5322 445.291 76.6648V87.4034C444.723 87.233 443.937 87.0814 442.933 86.9489C441.929 86.8163 441.011 86.75 440.178 86.75C438.397 86.75 436.806 87.1383 435.405 87.9148C434.022 88.6723 432.924 89.733 432.109 91.0966C431.314 92.4602 430.916 94.0322 430.916 95.8125V120.5H418.814ZM469.403 121.352C464.915 121.352 461.051 120.443 457.812 118.625C454.593 116.788 452.112 114.193 450.369 110.841C448.627 107.47 447.756 103.483 447.756 98.8807C447.756 94.392 448.627 90.4527 450.369 87.0625C452.112 83.6723 454.564 81.0303 457.727 79.1364C460.909 77.2424 464.64 76.2955 468.92 76.2955C471.799 76.2955 474.479 76.7595 476.96 77.6875C479.46 78.5966 481.638 79.9697 483.494 81.8068C485.369 83.6439 486.828 85.9545 487.869 88.7386C488.911 91.5038 489.432 94.7424 489.432 98.4545V101.778H452.585V94.2784H478.04C478.04 92.536 477.661 90.9924 476.903 89.6477C476.146 88.303 475.095 87.2519 473.75 86.4943C472.424 85.7178 470.881 85.3295 469.119 85.3295C467.282 85.3295 465.653 85.7557 464.233 86.608C462.831 87.4413 461.733 88.5682 460.938 89.9886C460.142 91.3902 459.735 92.9527 459.716 94.6761V101.807C459.716 103.966 460.114 105.831 460.909 107.403C461.723 108.975 462.869 110.188 464.347 111.04C465.824 111.892 467.576 112.318 469.602 112.318C470.947 112.318 472.178 112.129 473.295 111.75C474.413 111.371 475.369 110.803 476.165 110.045C476.96 109.288 477.566 108.36 477.983 107.261L489.176 108C488.608 110.689 487.443 113.038 485.682 115.045C483.939 117.034 481.686 118.587 478.92 119.705C476.174 120.803 473.002 121.352 469.403 121.352ZM513.409 121.21C510.095 121.21 507.093 120.358 504.403 118.653C501.733 116.93 499.612 114.402 498.04 111.068C496.487 107.716 495.71 103.606 495.71 98.7386C495.71 93.7386 496.515 89.5814 498.125 86.267C499.735 82.9337 501.875 80.4432 504.545 78.7955C507.235 77.1288 510.18 76.2955 513.381 76.2955C515.824 76.2955 517.86 76.7121 519.489 77.5455C521.136 78.3598 522.462 79.3826 523.466 80.6136C524.489 81.8258 525.265 83.0189 525.795 84.1932H526.165V62.3182H538.239V120.5H526.307V113.511H525.795C525.227 114.723 524.422 115.926 523.381 117.119C522.358 118.294 521.023 119.269 519.375 120.045C517.746 120.822 515.758 121.21 513.409 121.21ZM517.244 111.58C519.195 111.58 520.843 111.049 522.188 109.989C523.551 108.909 524.593 107.403 525.312 105.472C526.051 103.54 526.42 101.277 526.42 98.6818C526.42 96.0871 526.061 93.8333 525.341 91.9205C524.621 90.0076 523.58 88.5303 522.216 87.4886C520.852 86.447 519.195 85.9261 517.244 85.9261C515.256 85.9261 513.58 86.4659 512.216 87.5455C510.852 88.625 509.82 90.1212 509.119 92.0341C508.419 93.947 508.068 96.1629 508.068 98.6818C508.068 101.22 508.419 103.464 509.119 105.415C509.839 107.347 510.871 108.862 512.216 109.96C513.58 111.04 515.256 111.58 517.244 111.58ZM566.932 120.5V62.3182H579.034V84.1932H579.403C579.934 83.0189 580.701 81.8258 581.705 80.6136C582.727 79.3826 584.053 78.3598 585.682 77.5455C587.33 76.7121 589.375 76.2955 591.818 76.2955C595 76.2955 597.936 77.1288 600.625 78.7955C603.314 80.4432 605.464 82.9337 607.074 86.267C608.684 89.5814 609.489 93.7386 609.489 98.7386C609.489 103.606 608.703 107.716 607.131 111.068C605.578 114.402 603.456 116.93 600.767 118.653C598.097 120.358 595.104 121.21 591.79 121.21C589.441 121.21 587.443 120.822 585.795 120.045C584.167 119.269 582.831 118.294 581.79 117.119C580.748 115.926 579.953 114.723 579.403 113.511H578.864V120.5H566.932ZM578.778 98.6818C578.778 101.277 579.138 103.54 579.858 105.472C580.578 107.403 581.619 108.909 582.983 109.989C584.347 111.049 586.004 111.58 587.955 111.58C589.924 111.58 591.591 111.04 592.955 109.96C594.318 108.862 595.35 107.347 596.051 105.415C596.771 103.464 597.131 101.22 597.131 98.6818C597.131 96.1629 596.78 93.947 596.08 92.0341C595.379 90.1212 594.347 88.625 592.983 87.5455C591.619 86.4659 589.943 85.9261 587.955 85.9261C585.985 85.9261 584.318 86.447 582.955 87.4886C581.61 88.5303 580.578 90.0076 579.858 91.9205C579.138 93.8333 578.778 96.0871 578.778 98.6818ZM623.629 136.864C622.095 136.864 620.656 136.741 619.311 136.494C617.985 136.267 616.887 135.973 616.016 135.614L618.743 126.58C620.163 127.015 621.442 127.252 622.578 127.29C623.733 127.328 624.728 127.063 625.561 126.494C626.413 125.926 627.105 124.96 627.635 123.597L628.345 121.75L612.692 76.8636H625.419L634.453 108.909H634.908L644.027 76.8636H656.839L639.879 125.216C639.065 127.564 637.957 129.61 636.555 131.352C635.173 133.114 633.421 134.468 631.3 135.415C629.179 136.381 626.622 136.864 623.629 136.864Z" fill="#F5F5F5"/>
<mask id="mask0_15_47" style="mask-type:luminance" maskUnits="userSpaceOnUse" x="954" y="31" width="545" height="111">
<path d="M1498.87 31.5877H954.367V141.536H1498.87V31.5877Z" fill="white"/>
</mask>
<g mask="url(#mask0_15_47)">
<path d="M1467.17 59.0746C1476.01 59.0746 1483.14 61.7834 1488.56 67.201C1494.06 72.5389 1496.8 79.4703 1496.8 87.995C1496.8 96.5198 1494.06 103.491 1488.56 108.909C1483.14 114.247 1476.01 116.916 1467.17 116.916C1458.24 116.916 1451.03 114.247 1445.54 108.909C1440.12 103.491 1437.41 96.5198 1437.41 87.995C1437.41 79.4703 1440.12 72.5389 1445.54 67.201C1451.03 61.7834 1458.24 59.0746 1467.17 59.0746ZM1457.61 99.2286C1460 102.097 1463.18 103.531 1467.17 103.531C1471.15 103.531 1474.3 102.097 1476.61 99.2286C1479 96.3605 1480.19 92.616 1480.19 87.995C1480.19 83.3741 1479 79.6296 1476.61 76.7615C1474.3 73.8933 1471.15 72.4592 1467.17 72.4592C1463.18 72.4592 1460 73.8933 1457.61 76.7615C1455.22 79.6296 1454.02 83.3741 1454.02 87.995C1454.02 92.616 1455.22 96.3605 1457.61 99.2286Z" fill="white"/>
<path d="M1341.11 59.0746C1348.36 59.0746 1354.1 60.9867 1358.32 64.8109C1362.63 68.5554 1364.78 73.256 1364.78 78.9126L1364.42 83.0953L1349.96 83.9318C1350.12 83.6132 1350.2 82.7766 1350.2 81.4222C1350.2 78.8727 1349.36 76.7615 1347.69 75.0884C1346.09 73.3356 1343.82 72.4592 1340.87 72.4592C1337.13 72.4592 1334.1 73.8535 1331.79 76.642C1329.56 79.4304 1328.45 83.0953 1328.45 87.6365C1328.45 92.5761 1329.68 96.48 1332.15 99.3481C1334.7 102.137 1338.33 103.531 1343.03 103.531C1349.72 103.531 1354.86 101.34 1358.44 96.958L1366.45 107.236C1364.38 109.865 1361.23 112.135 1357.01 114.047C1352.78 115.959 1347.77 116.916 1341.95 116.916C1332.63 116.916 1325.26 114.286 1319.84 109.028C1314.5 103.69 1311.83 96.7588 1311.83 88.2341C1311.83 79.5499 1314.54 72.5389 1319.96 67.201C1325.38 61.7834 1332.43 59.0746 1341.11 59.0746Z" fill="white"/>
<path d="M1281.55 104.487C1287.37 104.487 1292.23 102.336 1296.13 98.0336L1303.9 106.997C1301.75 109.785 1298.56 112.135 1294.34 114.047C1290.19 115.959 1285.29 116.916 1279.64 116.916C1270.32 116.916 1262.91 114.247 1257.41 108.909C1251.99 103.571 1249.28 96.5995 1249.28 87.995C1249.28 79.4703 1251.91 72.5389 1257.17 67.201C1262.43 61.7834 1269.4 59.0746 1278.08 59.0746C1286.13 59.0746 1292.46 61.5443 1297.09 66.4839C1301.71 71.4235 1304.02 77.837 1304.02 85.7244L1303.54 91.6997H1265.54C1266.25 95.6036 1267.97 98.7108 1270.67 101.021C1273.38 103.332 1277.01 104.487 1281.55 104.487ZM1278.08 71.5032C1274.82 71.5032 1272.03 72.5389 1269.72 74.6104C1267.49 76.6021 1266.09 79.4703 1265.54 83.2148H1289.08C1289 79.789 1287.96 77.0005 1285.97 74.8494C1284.06 72.6186 1281.43 71.5032 1278.08 71.5032Z" fill="white"/>
<path d="M1225.86 59.7916H1238.76V114.047C1238.76 122.333 1235.89 128.986 1230.16 134.005C1224.42 139.024 1216.73 141.534 1207.09 141.534C1196.82 141.534 1188.37 139.303 1181.76 134.841L1183.39 123.556C1188.57 127.46 1199.64 128.388 1206.74 128.388C1211.52 128.388 1215.3 127.193 1218.09 124.803C1220.96 122.492 1222.39 119.067 1222.39 114.525V107.594C1218.73 112.932 1213.07 115.601 1205.42 115.601C1197.93 115.601 1191.8 113.131 1187.02 108.192C1182.24 103.172 1179.85 96.2011 1179.85 87.278C1179.85 78.7532 1182.12 71.9414 1186.66 66.8425C1191.2 61.6639 1197.33 59.0746 1205.06 59.0746C1214.06 59.0746 1220.24 62.8589 1223.59 70.4276H1223.94C1223.86 69.5513 1224.02 67.9578 1224.42 65.6474C1224.82 63.3369 1225.3 61.385 1225.86 59.7916ZM1209.48 101.858C1213.39 101.858 1216.49 100.503 1218.81 97.7945C1221.2 95.0061 1222.39 91.9387 1222.39 88.5926V86.0829C1222.39 82.4978 1221.2 79.3906 1218.81 76.7615C1216.42 74.1323 1213.19 72.8178 1209.13 72.8178C1205.3 72.8178 1202.23 74.1323 1199.92 76.7615C1197.61 79.3906 1196.46 82.8961 1196.46 87.278C1196.46 91.7396 1197.61 95.2849 1199.92 97.9141C1202.31 100.543 1205.5 101.858 1209.48 101.858Z" fill="white"/>
<path d="M1148.6 59.0746C1155.38 59.0746 1160.56 61.146 1164.14 65.2889C1167.81 69.4318 1169.64 74.8494 1169.64 81.5417V116.199H1153.27V84.4099C1153.27 80.984 1152.39 78.2752 1150.64 76.2834C1148.96 74.212 1146.53 73.1763 1143.35 73.1763C1139.44 73.1763 1136.45 74.5705 1134.38 77.359C1132.39 80.1475 1131.4 83.3741 1131.4 87.039V116.199H1115.02V59.7916L1127.81 59.3136C1129.16 63.5361 1129.84 67.4798 1129.84 71.1447H1130.32C1133.59 63.0979 1139.68 59.0746 1148.6 59.0746Z" fill="white"/>
<path d="M1104.03 41.7457C1104.03 44.6935 1102.99 47.1234 1100.92 49.0355C1098.85 50.9476 1096.34 51.9037 1093.39 51.9037C1090.44 51.9037 1087.94 50.9476 1085.86 49.0355C1083.87 47.1234 1082.88 44.6935 1082.88 41.7457C1082.88 38.8775 1083.87 36.4874 1085.86 34.5753C1087.94 32.5835 1090.44 31.5876 1093.39 31.5876C1096.34 31.5876 1098.85 32.5835 1100.92 34.5753C1102.99 36.4874 1104.03 38.8775 1104.03 41.7457ZM1085.15 116.198V59.7911L1101.52 59.3131V116.198H1085.15Z" fill="white"/>
<path d="M1045.04 59.0746C1053.89 59.0746 1061.02 61.7834 1066.43 67.201C1071.93 72.5389 1074.68 79.4703 1074.68 87.995C1074.68 96.5198 1071.93 103.491 1066.43 108.909C1061.02 114.247 1053.89 116.916 1045.04 116.916C1036.12 116.916 1028.91 114.247 1023.41 108.909C1017.99 103.491 1015.29 96.5198 1015.29 87.995C1015.29 79.4703 1017.99 72.5389 1023.41 67.201C1028.91 61.7834 1036.12 59.0746 1045.04 59.0746ZM1035.48 99.2286C1037.87 102.097 1041.06 103.531 1045.04 103.531C1049.03 103.531 1052.17 102.097 1054.48 99.2286C1056.87 96.3605 1058.07 92.616 1058.07 87.995C1058.07 83.3741 1056.87 79.6296 1054.48 76.7615C1052.17 73.8933 1049.03 72.4592 1045.04 72.4592C1041.06 72.4592 1037.87 73.8933 1035.48 76.7615C1033.09 79.6296 1031.9 83.3741 1031.9 87.995C1031.9 92.616 1033.09 96.3605 1035.48 99.2286Z" fill="white"/>
<path d="M983.646 59.0746C990.896 59.0746 996.632 60.9867 1000.85 64.8109C1005.16 68.5554 1007.31 73.256 1007.31 78.9126L1006.95 83.0953L992.489 83.9318C992.649 83.6132 992.728 82.7766 992.728 81.4222C992.728 78.8727 991.892 76.7615 990.219 75.0884C988.625 73.3356 986.355 72.4592 983.407 72.4592C979.662 72.4592 976.635 73.8535 974.324 76.642C972.093 79.4304 970.978 83.0953 970.978 87.6365C970.978 92.5761 972.213 96.48 974.683 99.3481C977.232 102.137 980.857 103.531 985.558 103.531C992.25 103.531 997.389 101.34 1000.97 96.958L1008.98 107.236C1006.91 109.865 1003.76 112.135 999.54 114.047C995.317 115.959 990.298 116.916 984.482 116.916C975.161 116.916 967.791 114.286 962.374 109.028C957.036 103.69 954.367 96.7588 954.367 88.2341C954.367 79.5499 957.076 72.5389 962.493 67.201C967.911 61.7834 974.962 59.0746 983.646 59.0746Z" fill="white"/>
<path d="M1417.25 91.0885C1420.64 97.0307 1424.03 101.865 1427.56 106.901C1429.1 109.086 1430.65 111.308 1432.25 113.676C1434.28 116.684 1431.65 120.288 1428.3 118.901C1415.22 113.492 1405.67 103.314 1399.13 93.7322H1392.11V116.199H1375.74V31.828H1392.11V80.945H1399.05C1403.51 80.945 1407.01 79.5906 1409.56 76.8818C1412.11 74.173 1413.39 70.309 1413.39 65.2897C1413.39 64.015 1413.23 62.1825 1412.91 59.7924H1428.56C1428.96 61.6248 1429.16 63.5768 1429.16 65.6482C1429.16 76.7447 1424.21 86.2512 1417.25 91.0885Z" fill="white"/>
</g>
<mask id="mask1_15_47" style="mask-type:luminance" maskUnits="userSpaceOnUse" x="724" y="3" width="168" height="170">
<path d="M891.539 3.63165H724V172.949H891.539V3.63165Z" fill="white"/>
</mask>
<g mask="url(#mask1_15_47)">
<path d="M891.538 87.6241C891.748 134.222 854.411 172.165 808.15 172.376C761.884 172.587 724.21 134.983 724.001 88.3848C723.791 41.7867 761.129 3.84342 807.395 3.63248C853.656 3.42794 891.329 41.026 891.538 87.6241Z" fill="#FFE866"/>
<path d="M850.254 57.8129C844.173 56.0423 837.878 53.5238 831.493 50.9861C831.125 49.3753 829.71 47.3682 826.841 44.9073C822.671 41.2638 814.84 41.3597 808.074 42.9705C800.604 41.1999 793.223 40.5671 786.14 42.2802C728.221 58.3562 761.059 97.5587 739.791 136.978C742.818 143.441 776.208 174.49 822.627 171.042C822.627 171.042 806.487 131.98 842.911 113.226C872.454 98.0189 893.798 69.7788 850.247 57.8065L850.254 57.8129Z" fill="#4BCC00"/>
<path d="M806.849 42.7338C812.035 44.8064 830.602 51.4042 838.794 53.8799C829.527 40.5537 817.287 41.0356 806.849 42.7338Z" fill="#35AF00"/>
<path d="M812.085 67.2117C812.085 76.2244 804.831 83.5242 795.889 83.5242C786.946 83.5242 779.692 76.2244 779.692 67.2117C779.692 58.1989 786.946 50.9055 795.889 50.9055C804.831 50.9055 812.085 58.2052 812.085 67.2117Z" fill="white"/>
<path d="M870.524 90.6887C857.406 100.002 842.472 107.065 821.306 107.065C811.399 107.065 809.388 96.4607 802.838 101.657C799.455 104.342 787.536 110.344 778.073 109.89C768.528 109.43 753.29 103.844 749.006 83.5104C747.312 103.844 746.448 118.827 738.864 135.996C757.482 163.357 789.943 176.97 822.627 171.05C819.117 146.357 840.543 122.176 852.614 109.801C857.184 105.116 865.942 97.4643 870.524 90.6887Z" fill="#4BCC00"/>
<path d="M802.716 80.4063C807.965 80.4063 812.22 74.449 812.22 67.1003C812.22 59.7516 807.965 53.7943 802.716 53.7943C797.467 53.7943 793.212 59.7516 793.212 67.1003C793.212 74.449 797.467 80.4063 802.716 80.4063Z" fill="#0D1217"/>
<path d="M802.715 67.0986L791.31 59.4952V74.702L802.715 67.0986Z" fill="white"/>
</g>
<path d="M1690.18 31.5839H1550.07C1533.36 31.5839 1519.81 45.1331 1519.81 61.8468V104.842C1519.81 121.556 1533.36 135.105 1550.07 135.105H1690.18C1706.89 135.105 1720.44 121.556 1720.44 104.842V61.8468C1720.44 45.1331 1706.89 31.5839 1690.18 31.5839Z" fill="#A6EF5F"/>
<path d="M1666.39 107.063V59.6255H1676.38V107.063H1666.39Z" fill="#0D1217"/>
<path d="M1632.57 59.6255C1638.9 59.6255 1643.79 61.063 1647.24 63.938C1650.74 66.7651 1652.48 70.9338 1652.48 76.4442C1652.48 81.8587 1650.78 86.0274 1647.38 88.9503C1643.98 91.8253 1639.5 93.2628 1633.94 93.2628H1625.75V107.063H1615.54V59.6255H1632.57ZM1632 85.2129C1635.26 85.2129 1637.75 84.4702 1639.47 82.9848C1641.25 81.4514 1642.13 79.2712 1642.13 76.4442C1642.13 73.7129 1641.22 71.5807 1639.4 70.0473C1637.63 68.4661 1635.02 67.6755 1631.57 67.6755H1625.75V85.2129H1632Z" fill="#0D1217"/>
<path d="M1592.69 107.063L1589.38 96.9284H1572.2L1568.9 107.063H1558.48L1575.29 59.6256H1586.29L1603.04 107.063H1592.69ZM1574.72 89.2379H1586.94L1582.34 75.1505C1581.72 73.3296 1581.24 71.5328 1580.9 69.7599H1580.68C1580.49 71.0057 1580.01 72.8265 1579.25 75.2223L1574.72 89.2379Z" fill="#0D1217"/>
</svg>
